<svg xmlns="http://www.w3.org/2000/svg" width="100" height="100" viewBox="0 0 60 54" fill="none"><path fill-rule="evenodd" clip-rule="evenodd" d="M4.48256 39.1499L4.48047 39.1535L22.5649 39.1524C22.5404 39.1524 22.5161 39.1515 22.4922 39.1499H4.48256ZM6.21461 36.1499H22.5484L29.1276 24.7544C29.1326 24.7456 29.1378 24.737 29.143 24.7284C29.1474 24.7213 29.1519 24.7143 29.1564 24.7073L38.1703 9.09482L34.3777 2.52584C32.4332 -0.842108 27.5719 -0.842109 25.6275 2.52583L6.21461 36.1499Z" fill="#40C4A6"/><path fill-rule="evenodd" clip-rule="evenodd" d="M31.7314 26.2364L38.315 37.6394C38.3243 37.6555 38.3331 37.6717 38.3413 37.6879L47.3552 53.3004H54.9404C58.8294 53.3004 61.26 49.0905 59.3155 45.7225L39.8983 12.0909L31.7314 26.2364Z" fill="#40C4A6"/><path fill-rule="evenodd" clip-rule="evenodd" d="M35.7407 39.1558L22.5599 39.1558C22.5413 39.1558 22.5229 39.1553 22.5047 39.1544L4.47696 39.1544L0.684365 45.7233C-1.26012 49.0913 1.1705 53.3012 5.05946 53.3012L43.9076 53.3012L35.7407 39.1558Z" fill="#40C4A6"/></svg>