<svg width="100" height="100" viewBox="0 0 28 29" xmlns="http://www.w3.org/2000/svg"><title>Logo</title><path d="M13.996 8.915c3.136 0 5.687 2.578 5.687 5.747 0 3.17-2.551 5.748-5.687 5.748-3.135 0-5.686-2.578-5.686-5.748 0-3.169 2.551-5.747 5.686-5.747m0-3.98c-5.314 0-9.622 4.355-9.622 9.727s4.308 9.727 9.622 9.727c5.315 0 9.623-4.355 9.623-9.727s-4.308-9.726-9.623-9.726zM0 26.14c0 1.465 1.175 2.653 2.624 2.653 1.45 0 2.625-1.188 2.625-2.653s-1.175-2.653-2.625-2.653C1.175 23.487 0 24.675 0 26.14zM22.744 3.167c0 1.465 1.175 2.653 2.625 2.653 1.449 0 2.624-1.188 2.624-2.653S26.818.514 25.369.514c-1.45 0-2.625 1.188-2.625 2.653z" fill="#007ee5" fill-rule="evenodd"></path></svg>